Inverse Dynamics Generalized Forces
version=1
nRows=15
nColumns=34
inDegrees=no
endheader 
time	pelvis_tilt_moment	pelvis_list_moment	pelvis_rotation_moment	pelvis_tx_force	pelvis_ty_force	pelvis_tz_force	hip_flexion_l_moment	hip_adduction_l_moment	hip_rotation_l_moment	hip_flexion_r_moment	hip_adduction_r_moment	hip_rotation_r_moment	knee_angle_l_moment	knee_angle_r_moment	ankle_angle_l_moment	ankle_angle_r_moment	subtalar_angle_l_moment	subtalar_angle_r_moment	mtp_angle_l_moment	mtp_angle_r_moment	lumbar_extension_moment	lumbar_bending_moment	lumbar_rotation_moment	arm_flex_l_moment	arm_add_l_moment	arm_rot_l_moment	arm_flex_r_moment	arm_add_r_moment	arm_rot_r_moment	elbow_flex_l_moment	elbow_flex_r_moment	pro_sup_l_moment	pro_sup_r_moment	
          7.82000000	         -0.00000000	          0.00000000	         -0.00000000	          0.00000000	         -0.00000000	          0.00000000	          8.12655249	         10.89068771	         -0.37895464	         -4.74306060	          6.77542805	         -0.28970574	         -8.14748522	          3.14619766	         -0.15140223	          0.15058231	          0.35598944	          0.21288358	          0.02141325	         -0.01321362	         -8.32901137	          0.26557433	         13.37134591	         -0.62181038	        -32.55559104	        -25.87407433	          2.62794411	         28.88853897	         38.44473478	        -10.88495936	         24.71837201	         -1.22995955	          4.34177977	
          7.83000000	         -0.00000000	         -0.00000000	          0.00000000	         -0.00000000	         -0.00000000	         -0.00000000	          9.89645150	          8.71999793	          0.24283952	         -0.79646778	         13.08790823	         -0.93563398	         -6.94565801	          2.51834599	          0.09448691	          0.05669325	          0.07059253	          0.46560660	          0.01017677	         -0.02581837	        -10.05629045	         -2.28290914	         15.14599118	         36.82434094	         12.42880787	          1.21880699	        -35.07574979	         59.88742695	        -14.46668215	          8.51928998	        -20.62852865	          0.18843811	         -2.27755841	
          7.84000000	         -0.00000000	          0.00000000	         -0.00000000	          0.00000000	          0.00000000	          0.00000000	         -0.86568951	         11.14848602	         -0.54654307	         -2.69712391	          9.57446260	         -1.50662595	         -2.94183489	          0.92212140	          0.19827096	         -0.17734367	         -0.05434757	          0.50434626	         -0.00477763	          0.00236428	         12.83928740	         17.13682144	          5.38264827	         64.63231776	        -28.03528272	        -22.89896069	          6.28049492	          7.03841296	         -8.02699010	         10.47688699	          0.04047864	         -1.28995333	         -1.18288989	
          7.85000000	         -0.00000000	         -0.00000000	          0.00000000	         -0.00000000	         -0.00000000	         -0.00000000	         -1.45626841	          7.95525973	         -0.66674572	         -1.82339875	          6.98759294	         -1.11954118	         -1.95271330	          0.01754025	          0.09238205	         -0.05638157	         -0.08320618	          0.25362040	          0.00358160	          0.00756352	         15.67462267	          6.55246453	          0.99736418	         85.62221563	         -8.83397177	        -27.99159490	        -20.65783879	         16.31738200	         33.12343183	         22.37683260	         15.49443096	         -2.64102011	          4.19652038	
          7.86000000	         -0.00000000	          0.00000000	          0.00000000	         -0.00000000	          0.00000000	          0.00000000	         -1.03119910	          7.38718675	         -0.46702857	         -1.12011220	          9.70532131	         -1.41713752	         -1.26364151	          3.76022014	          0.01393474	         -0.25388299	         -0.10476101	          0.18491987	          0.00421621	          0.01881932	          1.00445100	          1.68859012	          7.75731142	         26.99332308	         30.34048144	         16.12481214	        -52.58537456	         50.31465905	        -18.19597692	         11.98093582	        -27.55112739	          1.92251375	         -2.51882682	
          7.87000000	         -0.00000000	          0.00000000	          0.00000000	          0.00000000	          0.00000000	         -0.00000000	         -2.18103571	          5.32318516	         -0.40389495	         10.93377554	         22.66631692	         -1.34314224	         -0.73136812	          3.88405051	          0.21844551	          0.09778001	          0.12520530	          0.42206487	         -0.01884421	         -0.02870243	         -7.12362255	        -21.14064474	          2.85689248	         56.99775011	         28.10089031	        -27.06557135	        -49.46166958	         32.35143326	          2.93747851	         32.97573151	         -8.85466308	         -4.44789726	          0.09930792	
          7.88000000	         -0.00000000	         -0.00000000	         -0.00000000	          0.00000000	         -0.00000000	          0.00000000	          1.38827343	          6.87104550	         -0.02766157	          8.68005336	         16.70653335	         -1.27429774	         -0.55933958	          4.86437195	          0.31800105	          0.42446145	          0.28248865	          0.16965615	         -0.03934057	         -0.04848153	        -19.46599808	        -11.65144723	         12.75529092	          5.82683022	        -16.55923292	         12.31500840	        -43.67268890	        -13.29444819	         40.73246651	          2.71160457	          6.78423022	          2.04074883	          5.98430803	
          7.89000000	          0.00000000	          0.00000000	         -0.00000000	          0.00000000	          0.00000000	          0.00000000	          6.06956989	          7.27159268	          0.75992743	          5.05267239	         15.71898072	         -1.88366499	          0.03535533	          5.00652387	          0.28748344	          0.26846880	          0.22298232	          0.19349728	         -0.04216841	         -0.03397843	        -36.74918219	         -6.24917424	         25.82954141	        -33.15920497	        -49.62973629	         44.59362354	        -69.47144689	         28.34574036	        -14.87466384	        -23.45399942	        -34.67590668	          7.01404498	         -2.16155672	
          7.90000000	         -0.00000000	          0.00000000	          0.00000000	          0.00000000	         -0.00000000	         -0.00000000	         13.21338903	          8.27108246	          1.38043019	          6.09573523	         15.09806844	         -2.67270028	          0.90018797	          4.73706935	         -0.06258274	          0.02416725	          0.19928881	          0.21836706	         -0.00499165	          0.00745916	        -58.98432710	        -10.20694581	         35.30407777	        -62.81691240	        -73.61185953	        -12.47145539	        -89.78327787	        -16.20833220	        -27.99252212	        -40.76809965	        -38.03009773	         -2.13533459	         -3.64966935	
          7.91000000	         -0.00000000	         -0.00000000	          0.00000000	          0.00000000	         -0.00000000	         -0.00000000	          7.44024760	         -1.90679747	          0.36213927	         29.00195622	         24.43079444	         -0.77191930	          0.59315522	         -6.52637037	          0.12610628	          0.32728907	          0.02895467	          0.48702204	         -0.00615808	          0.00458965	        -61.57157231	        -56.86712809	          2.66205889	        -84.63378669	        -92.62484836	        -46.16863035	        -47.96844222	         24.18953782	         22.32122555	        -66.13723194	        -11.57197902	         -7.67787389	          2.45837907	
          7.92000000	         -0.00000000	         -0.00000000	          0.00000000	         -0.00000000	          0.00000000	         -0.00000000	         12.99471831	          0.90706991	          1.16910103	         27.48177652	         26.54734723	         -1.41758707	          0.07447658	         -4.83313190	          0.16291306	          0.74765999	         -0.00882280	          0.47681024	         -0.00515933	         -0.04529247	        -67.58704298	        -45.51130740	         18.52939429	        -55.25638236	       -107.42458452	         11.38201375	        -73.33672793	        -19.12464826	         53.75701323	        -36.91652179	        -25.88774697	          0.86704127	          8.80472555	
          7.93000000	         -0.00000000	          0.00000000	          0.00000000	         -0.00000000	         -0.00000000	         -0.00000000	         11.47738397	          0.99517791	          1.13443921	         19.46746215	         19.46291095	         -2.18263248	          0.47661422	         -1.17895963	          0.10096946	          0.38111769	         -0.21487459	          0.43537568	         -0.00120665	         -0.03726818	        -58.43552523	        -17.30240945	         26.00522980	        -30.04901967	       -117.95763263	         47.17212613	        -91.72887924	         24.07104089	         -6.09628320	        -63.97668291	        -54.82244693	          5.23429875	         -0.23130146	
          7.94000000	         -0.00000000	          0.00000000	         -0.00000000	          0.00000000	         -0.00000000	          0.00000000	         10.25946297	          2.12779853	          1.18902404	         18.68002665	         15.88988139	         -1.77751282	          0.31922124	         -1.72907920	          0.13186020	          0.60331132	          0.04219424	          0.28079739	         -0.00882644	         -0.04885136	        -53.65631223	        -16.20834044	         22.71688584	        -42.61828147	        -51.32302150	         29.44517195	        -63.86439635	        -19.27505752	        -20.61662566	        -25.67521785	        -36.10705173	          2.54931618	         -1.84578023	
          7.95000000	         -0.00000000	         -0.00000000	         -0.00000000	          0.00000000	         -0.00000000	         -0.00000000	          3.29355268	         -2.69832584	         -0.51119847	         15.26469969	         11.55479846	         -1.50439459	         -0.11653328	         -3.10022422	          0.24497554	          0.36058859	         -0.04774827	          0.11293658	         -0.01203727	         -0.02223801	        -22.06482997	        -25.62103635	          0.60356036	        -12.81695971	        -43.21584890	        -17.74310369	        -10.30874495	          9.77119946	         24.55428306	        -19.18615248	          6.16518068	         -1.98139389	          2.16597274	
          7.96000000	         -0.00000000	          0.00000000	         -0.00000000	          0.00000000	          0.00000000	         -0.00000000	          2.21124007	         -1.93546473	         -0.47411049	         12.79460263	          9.92177274	         -1.25995321	         -0.62992800	         -2.13326524	          0.29552477	          0.16750011	         -0.04622138	          0.13615296	         -0.01249093	         -0.00905288	        -14.32406398	        -21.82863815	         -2.55962632	         23.51416102	          4.73941932	        -49.93948534	        -17.36595589	        -29.55000864	        -20.86874164	          0.04021605	        -16.04638623	         -4.85274167	         -1.78594697	
